<svg xmlns="http://www.w3.org/2000/svg" xmlns:xlink="http://www.w3.org/1999/xlink" width="100" height="100" viewBox="0 0 100 100"><rect width="100%" height="100%" fill="#007224" rx="5" ry="5"></rect><g transform="translate(50 50) scale(0.69 0.69) rotate(0) translate(-50 -50)" style="fill:#ffffff"><svg fill="#ffffff" xmlns="http://www.w3.org/2000/svg" xmlns:xlink="http://www.w3.org/1999/xlink" version="1.1" x="0px" y="0px" viewBox="0 0 100 100" enable-background="new 0 0 100 100" xml:space="preserve"><path d="M74.219,53.625c0.176-0.171,0.347-0.346,0.515-0.523l5.031,13.685l-7.429,17.021l-3.788-1.787l5.05-14.444l-4.581-8.913  L74.219,53.625z M40.249,57.734h18.263l1.758,28.125h4.219l2.461-28.125l5.801-5.625c2.134-2.067,3.639-4.697,4.345-7.583  l2.784-11.401h-2.066c-6.824,0-13.267-2.475-18.308-6.997l-3.88,3.481H11.62c-3.656,0-6.62,2.964-6.62,6.62v28.536h6.328V35.938  c0-0.584,0.236-1.111,0.619-1.491c0.38-0.383,0.907-0.619,1.491-0.619v11.25l2.813,12.656l-2.813,7.031l2.535,21.094h4.219V67.578  l2.934-2.788l6.287-6.189c2.66-2.619,4.186-6.263,4.186-9.995v-3.528h2.109v3.528c0,4.295-1.755,8.486-4.816,11.499l-6.868,6.762  l8.23,18.993h4.219l-5.625-18.281L40.249,57.734z M90.781,31.016V18.359l1.55-0.517c0.798-0.264,1.463-0.77,1.93-1.42  C94.733,15.772,95,14.981,95,14.141H81.978c-5.864,0-11.524,2.166-15.891,6.082l-5,4.486c4.628,4.075,10.504,6.307,16.726,6.307  H90.781z M82.65,37.326c0.422,1.072,1.455,1.775,2.609,1.775h2.721c1.547,0,2.802-1.255,2.802-2.802v-3.175h-9.782L82.65,37.326z"></path></svg></g></svg>