<svg xmlns="http://www.w3.org/2000/svg" xmlns:xlink="http://www.w3.org/1999/xlink" width="100" height="100" viewBox="0 0 100 100"><rect width="100%" height="100%" fill="#003998" rx="5" ry="5"></rect><g transform="translate(50 50) scale(0.69 0.69) rotate(0) translate(-50 -50)" style="fill:#ffffff"><svg fill="#ffffff" xmlns="http://www.w3.org/2000/svg" xmlns:xlink="http://www.w3.org/1999/xlink" version="1.1" x="0px" y="0px" viewBox="0 0 1024 1024" style="enable-background:new 0 0 1024 1024;" xml:space="preserve"><g><g><g><path d="M828.9,209.5c0,12.8,0,25.7,0,38.5c0,30.2,0,60.4,0,90.6c0,35.6,0,71.1,0,106.7c0,28.4,0,56.9,0,85.3     c0,17.4,0.4,34.9-0.8,52.2c-0.5,6.7-1.2,13.4-2,20c0.5-3.5,1-7.1,1.4-10.6c-3.9,28.7-11.6,56.7-22.8,83.4c1.3-3.2,2.7-6.4,4-9.6     c-11,26-25.4,50.5-42.6,72.8c2.1-2.7,4.2-5.4,6.3-8.1c-16.9,21.7-36.4,41.2-58.1,58.1c2.7-2.1,5.4-4.2,8.1-6.3     c-27.8,21.4-59.5,37.6-89.8,54.8c-38.9,22.1-77.9,44.2-116.8,66.4c-9.4,5.4-18.8,10.7-28.3,16.1c13.5,0,26.9,0,40.4,0     C503.9,906,480,892,456.1,878.1c-34.9-20.3-69.9-40.7-104.8-61c-16.8-9.8-33.3-19.7-48.8-31.5c2.7,2.1,5.4,4.2,8.1,6.3     c-22.2-17.2-42.1-37-59.3-59.1c2.1,2.7,4.2,5.4,6.3,8.1c-17.1-22.2-31.2-46.5-42.2-72.3c1.3,3.2,2.7,6.4,4,9.6     c-11.3-26.9-19-55.2-22.9-84.2c0.5,3.5,1,7.1,1.4,10.6c-2.9-22.1-2.8-44.2-2.8-66.4c0-27.2,0-54.5,0-81.7c0-35.3,0-70.6,0-105.9     c0-31.2,0-62.5,0-93.7c0-15.5,0.4-31.1,0-46.6c0-0.2,0-0.5,0-0.7c-13.3,13.3-26.7,26.7-40,40c66.8-0.1,134.3-12,196.7-36.1     c31-12,61.1-26.1,89.6-43.2c22.7-13.6,43.9-29.3,64.7-45.6c11.4-8.9,22.7-17.8,34.1-26.8c-18.9,0-37.7,0-56.6,0     c29.2,22.9,57.8,46.7,89.2,66.5c54.2,34.2,115.3,59.2,177.9,72.5c38.7,8.2,78.4,12.6,118,12.7c20.9,0,41-18.4,40-40     c-1-21.7-17.6-40-40-40c-22.9,0-45.7-1.6-68.3-4.5c3.5,0.5,7.1,1,10.6,1.4c-45.8-6.2-90.6-18.4-133.2-36.4c3.2,1.3,6.4,2.7,9.6,4     c-40.9-17.4-79.3-39.9-114.5-67c2.7,2.1,5.4,4.2,8.1,6.3c-13.7-10.6-27.2-21.3-40.8-32c-8.3-6.5-17.1-12.2-28.3-11.7     c-3.5,0.5-7.1,1-10.6,1.4c-6.8,1.9-12.7,5.3-17.7,10.3c-13.6,10.7-27.2,21.4-40.8,32c2.7-2.1,5.4-4.2,8.1-6.3     c-35.2,27.1-73.6,49.6-114.4,67c3.2-1.3,6.4-2.7,9.6-4c-42.3,17.9-86.9,30.1-132.4,36.3c3.5-0.5,7.1-1,10.6-1.4     c-22.9,3.1-46,4.6-69.2,4.7c-21.6,0-40,18.3-40,40c0,12.2,0,24.3,0,36.5c0,29.2,0,58.3,0,87.5c0,34.7,0,69.4,0,104     c0,29.2,0,58.4,0,87.7c0,12.3,0,24.5,0,36.8c0.1,67.1,18.8,134.3,54.1,191.5c31.7,51.4,76.1,94.6,128.3,125.1     c18.1,10.5,36.2,21.1,54.3,31.6c29.3,17.1,58.7,34.1,88,51.2c15.8,9.2,31.4,19.1,47.6,27.7c13.8,7.3,29.2,6.4,42.5-1.2     c2.7-1.6,5.5-3.1,8.2-4.7c10.2-5.8,20.4-11.6,30.5-17.4c29.4-16.7,58.8-33.4,88.2-50.1c21.2-12,42.4-24.1,63.6-36.1     c37-21,71.2-47.8,98.8-80.2c37.4-43.8,65.2-95.6,78.9-151.7c7.8-32,10.7-64.8,10.7-97.6c0-21.9,0-43.9,0-65.8     c0-33.4,0-66.8,0-100.2c0-33.2,0-66.4,0-99.6c0-21.9,0-43.8,0-65.7c0-3.1,0-6.2,0-9.2c0-20.9-18.4-41-40-40     C847.2,170.5,828.9,187.1,828.9,209.5z"></path></g></g><g><g><path d="M836.6,181.2c-5.3,5.4-10.5,10.8-15.8,16.3c-14.2,14.7-28.5,29.3-42.7,44c-21.1,21.8-42.3,43.6-63.4,65.3     c-25.7,26.5-51.4,52.9-77,79.4c-28.2,29.1-56.5,58.2-84.7,87.3c-28.5,29.4-57,58.8-85.5,88.2c-26.5,27.3-53,54.6-79.4,81.9     c-22.4,23.1-44.8,46.1-67.2,69.2c-16.2,16.7-32.3,33.3-48.5,50c-7.6,7.9-15.4,15.7-22.9,23.7c-0.3,0.3-0.6,0.7-1,1     c18.9,0,37.7,0,56.6,0C285,771.3,267,753,251.3,732.7c2.1,2.7,4.2,5.4,6.3,8.1c-8.6-11.2-16.5-22.9-23.6-35.1     c-2.1,16.2-4.2,32.3-6.3,48.5c4.7-4.8,9.3-9.6,14-14.4c12.6-13,25.2-26,37.9-39c18.7-19.3,37.5-38.6,56.2-58     c22.9-23.6,45.8-47.2,68.6-70.7c24.9-25.7,49.9-51.4,74.8-77.1c25.3-26.1,50.6-52.1,75.9-78.2c23.5-24.2,47-48.4,70.5-72.6     c19.9-20.6,39.9-41.1,59.8-61.7c14.3-14.8,28.7-29.5,43-44.3c6.8-7,13.6-13.9,20.3-20.9c0.3-0.3,0.6-0.6,0.9-0.9     c-13,3.4-25.9,6.9-38.9,10.3c49.8,14.7,102.1,22.4,154.1,22.9c20.9,0.2,41-18.5,40-40c-1-21.8-17.6-39.8-40-40     c-21.5-0.2-43-1.7-64.3-4.5c3.5,0.5,7.1,1,10.6,1.4c-26.8-3.6-53.2-9.3-79.2-17c-13.5-4-29.2,0.2-38.9,10.3     c-4.7,4.8-9.3,9.6-14,14.4c-12.6,13-25.2,26-37.9,39c-18.7,19.3-37.5,38.6-56.2,58c-22.9,23.6-45.8,47.2-68.6,70.7     c-24.9,25.7-49.9,51.4-74.8,77.1c-25.3,26.1-50.6,52.1-75.9,78.2c-23.5,24.2-47,48.4-70.5,72.6c-19.9,20.6-39.9,41.1-59.8,61.7     c-14.3,14.8-28.7,29.5-43,44.3c-6.8,7-13.6,13.8-20.3,20.9c-0.3,0.3-0.6,0.6-0.9,0.9c-12.4,12.7-15.3,33-6.3,48.5     c21.7,37.1,50,70.8,83.4,97.9c8.1,6.6,17.2,12.2,28.3,11.7c10.5-0.5,20.8-4,28.3-11.7c5.3-5.4,10.5-10.8,15.8-16.3     c14.2-14.7,28.5-29.3,42.7-44c21.1-21.8,42.3-43.6,63.4-65.3c25.7-26.5,51.4-52.9,77-79.4c28.2-29.1,56.5-58.2,84.7-87.3     c28.5-29.4,57-58.8,85.5-88.2c26.5-27.3,53-54.6,79.4-81.9c22.4-23.1,44.8-46.1,67.2-69.2c16.2-16.7,32.3-33.3,48.5-50     c7.6-7.9,15.4-15.7,22.9-23.7c0.3-0.3,0.6-0.7,1-1c7.2-7.4,11.7-17.9,11.7-28.3c0-9.8-4.4-21.5-11.7-28.3     C877.4,166.7,852.1,165.1,836.6,181.2z"></path></g></g></g></svg></g></svg>