<svg xmlns="http://www.w3.org/2000/svg" xmlns:xlink="http://www.w3.org/1999/xlink" width="100" height="100" viewBox="0 0 100 100"><rect width="100%" height="100%" fill="#b80000" rx="5" ry="5"></rect><g transform="translate(50 50) scale(0.69 0.69) rotate(0) translate(-50 -50)" style="fill:#ffffff"><svg fill="#ffffff" xmlns="http://www.w3.org/2000/svg" viewBox="0 0 32 32" enable-background="new 0 0 32 32" x="0px" y="0px"><g><path d="M15.5 23.5c-.256 0-.512-.098-.707-.293-.391-.391-.391-1.023 0-1.414l15.207-15.207v-4.586h-4.586l-15.207 15.207c-.391.391-1.023.391-1.414 0s-.391-1.023 0-1.414l15.5-15.5c.187-.188.441-.293.707-.293h6c.553 0 1 .448 1 1v6c0 .265-.105.52-.293.707l-15.5 15.5c-.195.195-.451.293-.707.293zM4 31.996c-1.071 0-2.075-.415-2.828-1.168-.754-.753-1.168-1.757-1.168-2.828s.415-2.075 1.168-2.828l8-8c.391-.391 1.023-.391 1.414 0s.391 1.023 0 1.414l-8 8c-.376.375-.582.878-.582 1.414s.207 1.039.582 1.414c.751.752 2.077.752 2.828 0l8-8c.391-.391 1.023-.391 1.414 0s.391 1.023 0 1.414l-8 8c-.753.753-1.757 1.168-2.828 1.168zM19 28c-.256 0-.512-.098-.707-.293l-14-14c-.391-.391-.391-1.023 0-1.414s1.023-.391 1.414 0l14 14c.391.391.391 1.023 0 1.414-.195.195-.451.293-.707.293zM4 32c-.552 0-1-.447-1-1v-7c0-.553.448-1 1-1s1 .447 1 1v7c0 .553-.448 1-1 1zM7 30c-.552 0-1-.447-1-1v-8c0-.553.448-1 1-1s1 .447 1 1v8c0 .553-.448 1-1 1zM10 27c-.552 0-1-.447-1-1v-6c0-.553.448-1 1-1s1 .447 1 1v6c0 .553-.448 1-1 1zM12 21c-.256 0-.512-.098-.707-.293-.391-.391-.391-1.023 0-1.414l10.5-10.5c.391-.391 1.023-.391 1.414 0s.391 1.023 0 1.414l-10.5 10.5c-.195.195-.451.293-.707.293z"></path><circle cx="5" cy="13" r="2"></circle><circle cx="19" cy="27" r="2"></circle></g></svg></g></svg>